<svg xmlns="http://www.w3.org/2000/svg" xmlns:xlink="http://www.w3.org/1999/xlink" width="288" zoomAndPan="magnify" viewBox="0 0 216 107.249998" height="143" preserveAspectRatio="xMidYMid meet" version="1.0"><path fill="#648dcb" d="M 57.246094 88.621094 C 54.195312 89.003906 51.640625 89.023438 49.578125 88.675781 C 47.511719 88.335938 45.855469 87.730469 44.601562 86.867188 C 43.347656 85.996094 42.398438 84.941406 41.75 83.714844 C 41.105469 82.480469 40.699219 81.144531 40.519531 79.714844 L 39.367188 70.4375 L 52.757812 68.757812 L 53.917969 78.171875 C 53.960938 78.46875 54.085938 78.734375 54.296875 78.96875 C 54.515625 79.207031 54.847656 79.292969 55.296875 79.238281 C 55.703125 79.1875 55.988281 79.027344 56.152344 78.765625 C 56.3125 78.496094 56.371094 78.199219 56.324219 77.871094 C 56.191406 76.773438 56.019531 75.703125 55.8125 74.65625 C 55.613281 73.601562 55.351562 72.667969 55.027344 71.855469 C 54.378906 70.148438 53.601562 68.660156 52.703125 67.394531 C 51.800781 66.132812 50.808594 64.996094 49.726562 63.988281 C 48.648438 62.980469 47.539062 62.023438 46.402344 61.132812 C 45.265625 60.234375 44.148438 59.273438 43.0625 58.253906 C 41.96875 57.226562 40.957031 56.0625 40.03125 54.761719 C 39.105469 53.464844 38.300781 51.933594 37.625 50.167969 C 36.941406 48.394531 36.445312 46.277344 36.136719 43.824219 L 35.933594 42.148438 C 35.546875 38.167969 36.46875 35.183594 38.695312 33.210938 C 40.910156 31.238281 44.226562 29.976562 48.648438 29.425781 C 52.054688 29 54.894531 29.105469 57.179688 29.734375 C 59.457031 30.355469 61.222656 31.421875 62.464844 32.925781 C 63.707031 34.425781 64.46875 36.253906 64.738281 38.414062 L 65.589844 45.339844 L 52.714844 46.949219 L 51.835938 39.863281 C 51.789062 39.53125 51.648438 39.265625 51.417969 39.066406 C 51.179688 38.867188 50.867188 38.792969 50.472656 38.835938 C 50.097656 38.882812 49.816406 39.03125 49.617188 39.28125 C 49.429688 39.535156 49.355469 39.84375 49.402344 40.203125 C 49.5 40.96875 49.664062 41.722656 49.890625 42.460938 C 50.125 43.199219 50.378906 43.871094 50.660156 44.472656 C 51.246094 45.683594 51.964844 46.757812 52.824219 47.691406 C 53.679688 48.632812 54.640625 49.519531 55.703125 50.355469 C 56.765625 51.1875 57.867188 52.066406 59.003906 52.992188 C 60.144531 53.921875 61.273438 54.992188 62.382812 56.199219 C 63.5 57.398438 64.546875 58.832031 65.519531 60.5 C 66.496094 62.15625 67.347656 64.136719 68.089844 66.433594 C 68.835938 68.726562 69.40625 71.429688 69.808594 74.546875 L 70.078125 76.75 C 70.300781 79.035156 69.894531 81.007812 68.859375 82.675781 C 67.824219 84.332031 66.308594 85.65625 64.316406 86.636719 C 62.324219 87.621094 59.964844 88.28125 57.246094 88.621094 Z M 57.246094 88.621094 " fill-opacity="1" fill-rule="nonzero"/><path fill="#648dcb" d="M 130.816406 85.75 L 132.613281 67.777344 L 127.421875 27.277344 L 142.523438 28.792969 L 141.023438 55.90625 L 141.617188 55.972656 L 145.230469 29.0625 L 160.550781 30.59375 L 147.542969 69.210938 L 145.742188 87.234375 Z M 130.816406 85.75 " fill-opacity="1" fill-rule="nonzero"/><path fill="#648dcb" d="M 70.910156 63.203125 L 70.910156 26.421875 L 86.136719 26.421875 L 86.136719 32.804688 L 80.566406 32.804688 L 80.566406 42.621094 L 85.003906 42.621094 L 85.003906 47.300781 L 80.566406 47.300781 L 80.566406 57.007812 L 86.246094 57.007812 L 86.246094 63.203125 Z M 70.910156 63.203125 " fill-opacity="1" fill-rule="nonzero"/><path fill="#648dcb" d="M 91.40625 33.3125 L 102.792969 34.289062 L 101.222656 64.75 L 101.589844 64.792969 L 105.28125 34.503906 L 115.816406 35.394531 L 114.246094 65.871094 L 114.664062 65.914062 L 118.277344 35.613281 L 129.6875 36.585938 L 120.058594 80.046875 L 107.792969 78.992188 L 109.160156 53.027344 L 108.796875 53 L 105.742188 78.8125 L 93.476562 77.773438 Z M 91.40625 33.3125 " fill-opacity="1" fill-rule="nonzero"/><path fill="#648dcb" d="M 143.242188 12.320312 L 143.375 13.039062 C 143.609375 12.679688 143.921875 12.371094 144.324219 12.117188 C 144.71875 11.859375 145.207031 11.667969 145.78125 11.550781 C 146.609375 11.382812 147.371094 11.398438 148.066406 11.605469 C 148.769531 11.8125 149.355469 12.179688 149.824219 12.699219 C 150.292969 13.214844 150.605469 13.847656 150.757812 14.605469 C 150.921875 15.390625 150.878906 16.117188 150.636719 16.78125 C 150.398438 17.441406 150.003906 18.007812 149.433594 18.472656 C 148.867188 18.933594 148.160156 19.246094 147.324219 19.40625 C 146.789062 19.515625 146.296875 19.527344 145.835938 19.433594 C 145.375 19.347656 144.953125 19.167969 144.566406 18.90625 L 145.242188 22.261719 L 142.96875 22.71875 L 140.96875 12.78125 Z M 145.714844 13.390625 C 145.046875 13.523438 144.554688 13.835938 144.238281 14.324219 C 143.933594 14.804688 143.847656 15.359375 143.984375 16 C 144.109375 16.628906 144.40625 17.113281 144.878906 17.445312 C 145.355469 17.769531 145.917969 17.863281 146.566406 17.730469 C 147.230469 17.605469 147.71875 17.296875 148.027344 16.808594 C 148.332031 16.324219 148.417969 15.753906 148.285156 15.105469 C 148.15625 14.476562 147.859375 14.003906 147.390625 13.6875 C 146.921875 13.363281 146.363281 13.261719 145.714844 13.390625 Z M 145.714844 13.390625 " fill-opacity="1" fill-rule="nonzero"/><path fill="#648dcb" d="M 155.726562 14.167969 L 153.386719 13.625 C 153.582031 12.773438 154.082031 12.191406 154.890625 11.894531 C 155.699219 11.597656 156.789062 11.609375 158.160156 11.921875 C 158.648438 12.039062 159.101562 12.1875 159.527344 12.355469 C 159.960938 12.527344 160.328125 12.753906 160.636719 13.03125 C 160.949219 13.3125 161.164062 13.652344 161.285156 14.058594 C 161.410156 14.464844 161.40625 14.953125 161.269531 15.519531 L 160.429688 19.15625 C 160.367188 19.414062 160.339844 19.632812 160.351562 19.804688 C 160.367188 19.976562 160.4375 20.121094 160.554688 20.25 L 160.515625 20.414062 L 157.996094 19.832031 L 158.078125 19.035156 C 157.582031 19.292969 157.070312 19.453125 156.535156 19.507812 C 156.015625 19.5625 155.4375 19.515625 154.804688 19.375 C 153.769531 19.128906 153.015625 18.71875 152.546875 18.144531 C 152.078125 17.570312 151.929688 16.917969 152.101562 16.195312 C 152.273438 15.4375 152.683594 14.972656 153.332031 14.789062 C 153.980469 14.597656 154.894531 14.597656 156.078125 14.777344 C 156.714844 14.878906 157.253906 14.957031 157.6875 15.019531 C 158.125 15.082031 158.472656 15.085938 158.714844 15.03125 C 158.957031 14.972656 159.113281 14.808594 159.175781 14.542969 C 159.300781 13.996094 158.800781 13.59375 157.671875 13.328125 C 157.121094 13.203125 156.6875 13.207031 156.363281 13.339844 C 156.039062 13.46875 155.824219 13.742188 155.726562 14.167969 Z M 158.769531 16.316406 C 158.503906 16.382812 158.214844 16.398438 157.890625 16.371094 C 157.570312 16.335938 157.222656 16.296875 156.835938 16.25 C 156.175781 16.179688 155.671875 16.15625 155.320312 16.179688 C 154.96875 16.203125 154.753906 16.382812 154.671875 16.734375 C 154.609375 17.015625 154.664062 17.269531 154.847656 17.492188 C 155.027344 17.710938 155.300781 17.863281 155.671875 17.953125 C 156.445312 18.136719 157.113281 18.097656 157.671875 17.832031 C 158.230469 17.570312 158.578125 17.148438 158.714844 16.5625 Z M 158.769531 16.316406 " fill-opacity="1" fill-rule="nonzero"/><path fill="#648dcb" d="M 166.515625 13.335938 L 168.488281 14.554688 L 167.433594 16.246094 L 168.921875 17.164062 L 167.988281 18.675781 L 166.503906 17.757812 L 164.839844 20.4375 C 164.695312 20.679688 164.589844 20.871094 164.527344 21.019531 C 164.464844 21.160156 164.464844 21.28125 164.527344 21.382812 C 164.601562 21.480469 164.746094 21.601562 164.976562 21.734375 L 165.785156 22.234375 L 164.851562 23.75 L 163.5 22.925781 C 162.777344 22.472656 162.316406 22.023438 162.109375 21.585938 C 161.910156 21.152344 161.988281 20.644531 162.335938 20.070312 L 164.527344 16.542969 L 163.597656 15.960938 L 164.527344 14.445312 L 165.460938 15.027344 Z M 166.515625 13.335938 " fill-opacity="1" fill-rule="nonzero"/><path fill="#648dcb" d="M 172.53125 17.710938 L 174.164062 19.359375 L 172.757812 20.753906 L 173.988281 21.996094 L 172.71875 23.253906 L 171.488281 22.011719 L 169.242188 24.230469 C 169.042969 24.425781 168.898438 24.585938 168.8125 24.714844 C 168.71875 24.839844 168.691406 24.957031 168.730469 25.066406 C 168.773438 25.171875 168.886719 25.316406 169.066406 25.5 L 169.746094 26.1875 L 168.484375 27.449219 L 167.375 26.324219 C 166.78125 25.71875 166.429688 25.179688 166.324219 24.703125 C 166.21875 24.230469 166.417969 23.757812 166.90625 23.28125 L 169.851562 20.359375 L 169.082031 19.578125 L 170.351562 18.316406 L 171.121094 19.105469 Z M 172.53125 17.710938 " fill-opacity="1" fill-rule="nonzero"/><path fill="#648dcb" d="M 174.996094 33.9375 C 174.09375 34.027344 173.265625 33.84375 172.503906 33.382812 C 171.75 32.925781 171.128906 32.191406 170.640625 31.191406 C 170.226562 30.359375 170.007812 29.574219 169.992188 28.824219 C 169.980469 28.074219 170.167969 27.40625 170.546875 26.8125 C 170.925781 26.21875 171.480469 25.738281 172.222656 25.363281 C 172.960938 25.007812 173.675781 24.855469 174.375 24.917969 C 175.066406 24.972656 175.703125 25.230469 176.292969 25.691406 C 176.886719 26.148438 177.390625 26.796875 177.808594 27.636719 C 178.445312 28.933594 178.609375 30.097656 178.292969 31.125 C 177.976562 32.160156 177.203125 32.984375 175.96875 33.601562 L 175.683594 33.75 L 172.832031 27.988281 C 172.34375 28.230469 172.035156 28.582031 171.898438 29.042969 C 171.761719 29.511719 171.820312 29.992188 172.074219 30.488281 C 172.269531 30.882812 172.523438 31.183594 172.832031 31.382812 C 173.144531 31.578125 173.488281 31.664062 173.859375 31.636719 Z M 174.265625 27.367188 L 175.925781 30.734375 C 176.332031 30.496094 176.578125 30.167969 176.671875 29.746094 C 176.757812 29.320312 176.6875 28.867188 176.453125 28.382812 C 176.210938 27.894531 175.890625 27.558594 175.496094 27.378906 C 175.105469 27.207031 174.695312 27.203125 174.265625 27.367188 Z M 174.265625 27.367188 " fill-opacity="1" fill-rule="nonzero"/><path fill="#648dcb" d="M 180.417969 37.148438 L 179.445312 37.269531 C 180.34375 37.839844 180.851562 38.53125 180.960938 39.355469 C 180.976562 39.433594 180.984375 39.535156 180.984375 39.664062 C 180.992188 39.796875 181 39.914062 181 40.015625 L 179.054688 40.273438 C 179.054688 40.207031 179.042969 40.097656 179.027344 39.949219 C 179.007812 39.792969 178.992188 39.65625 178.984375 39.527344 C 178.894531 38.859375 178.613281 38.359375 178.148438 38.027344 C 177.675781 37.703125 177.070312 37.589844 176.320312 37.691406 L 172.996094 38.121094 L 172.683594 35.808594 L 180.109375 34.835938 Z M 180.417969 37.148438 " fill-opacity="1" fill-rule="nonzero"/><path fill="#648dcb" d="M 180.421875 45.058594 L 179.394531 44.84375 C 180.078125 45.816406 180.304688 46.859375 180.082031 47.96875 C 179.910156 48.785156 179.640625 49.390625 179.269531 49.78125 C 178.902344 50.175781 178.4375 50.410156 177.878906 50.484375 C 177.328125 50.5625 176.683594 50.527344 175.945312 50.375 L 171.835938 49.523438 L 172.308594 47.25 L 176.015625 48.023438 C 176.75 48.171875 177.3125 48.183594 177.703125 48.050781 C 178.089844 47.914062 178.351562 47.523438 178.488281 46.875 C 178.621094 46.222656 178.546875 45.671875 178.257812 45.210938 C 177.976562 44.75 177.519531 44.453125 176.878906 44.316406 L 173.089844 43.535156 L 173.566406 41.261719 L 180.894531 42.789062 Z M 180.421875 45.058594 " fill-opacity="1" fill-rule="nonzero"/></svg>